HIERARCHY
ROOT Hips
{
 OFFSET 0.000000 0.000000 0.000000
 CHANNELS 6 Xposition Yposition Zposition Yrotation Xrotation Zrotation
 JOINT Chest
 {
  OFFSET 0.000000 9.588913 -0.003946
  CHANNELS 3 Yrotation Xrotation Zrotation
  JOINT Chest2
  {
   OFFSET 0.000000 9.541882 0.008053
   CHANNELS 3 Yrotation Xrotation Zrotation
   JOINT Chest3
   {
    OFFSET 0.000000 9.501360 0.000000
    CHANNELS 3 Yrotation Xrotation Zrotation
    JOINT Chest4
    {
     OFFSET 0.000000 9.491660 0.000000
     CHANNELS 3 Yrotation Xrotation Zrotation
     JOINT Neck
     {
      OFFSET 0.000000 14.331917 0.000000
      CHANNELS 3 Yrotation Xrotation Zrotation
      JOINT Head
      {
       OFFSET 0.000000 8.884799 0.017034
       CHANNELS 3 Yrotation Xrotation Zrotation
       End Site
       {
        OFFSET 0.000000 16.896195 0.008993
       }
      }
     }
     JOINT RightCollar
     {
      OFFSET -2.923010 9.499495 0.000000
      CHANNELS 3 Yrotation Xrotation Zrotation
      JOINT RightShoulder
      {
       OFFSET -13.795216 0.000000 0.000000
       CHANNELS 3 Yrotation Xrotation Zrotation
       JOINT RightElbow
       {
        OFFSET -30.272209 0.000000 0.000000
        CHANNELS 3 Yrotation Xrotation Zrotation
        JOINT RightWrist
        {
         OFFSET -24.478199 0.000000 0.000000
         CHANNELS 3 Yrotation Xrotation Zrotation
         End Site
         {
          OFFSET -18.090752 0.000000 0.000000
         }
        }
       }
      }
     }
     JOINT LeftCollar
     {
      OFFSET 2.923010 9.499495 0.000000
      CHANNELS 3 Yrotation Xrotation Zrotation
      JOINT LeftShoulder
      {
       OFFSET 13.795216 0.000000 0.000000
       CHANNELS 3 Yrotation Xrotation Zrotation
       JOINT LeftElbow
       {
        OFFSET 30.272209 0.000000 0.000000
        CHANNELS 3 Yrotation Xrotation Zrotation
        JOINT LeftWrist
        {
         OFFSET 24.478199 0.000000 0.000000
         CHANNELS 3 Yrotation Xrotation Zrotation
         End Site
         {
          OFFSET 18.090752 0.000000 0.000000
         }
        }
       }
      }
     }
    }
   }
  }
 }
 JOINT RightHip
 {
  OFFSET -7.826875 0.019532 0.001973
  CHANNELS 3 Yrotation Xrotation Zrotation
  JOINT RightKnee
  {
   OFFSET 0.000000 -40.546152 -0.001885
   CHANNELS 3 Yrotation Xrotation Zrotation
   JOINT RightAnkle
   {
    OFFSET 0.000000 -39.417092 -0.003189
    CHANNELS 3 Yrotation Xrotation Zrotation
    JOINT RightToe
    {
     OFFSET 0.000000 -7.579396 17.243563
     CHANNELS 3 Yrotation Xrotation Zrotation
     End Site
     {
      OFFSET 0.000000 -1.500329 6.694466
     }
    }
   }
  }
 }
 JOINT LeftHip
 {
  OFFSET 7.826875 0.019532 0.001973
  CHANNELS 3 Yrotation Xrotation Zrotation
  JOINT LeftKnee
  {
   OFFSET 0.000000 -40.546152 -0.001885
   CHANNELS 3 Yrotation Xrotation Zrotation
   JOINT LeftAnkle
   {
    OFFSET 0.000000 -39.417092 -0.003189
    CHANNELS 3 Yrotation Xrotation Zrotation
    JOINT LeftToe
    {
     OFFSET 0.000000 -7.579396 17.243563
     CHANNELS 3 Yrotation Xrotation Zrotation
     End Site
     {
      OFFSET 0.000000 -1.500329 6.694466
     }
    }
   }
  }
 }
}
MOTION
Frames: 11
Frame Time: 0.008333
183.097978 85.791046 -153.214364 121.524409 -23.759622 5.723677 -0.517446 9.146894 -0.188502 -0.060887 4.894472 0.110664 -0.074693 6.118110 0.137639 -0.060888 4.894476 0.110664 23.492329 21.369609 -0.288825 28.730471 -0.032595 -5.882360 -1.812270 0.439968 -4.286881 24.430315 13.448142 92.297823 24.798533 8.060926 47.590337 12.745348 -3.296787 1.809358 -4.863959 1.704852 1.736118 -24.551753 10.170747 -90.241204 -27.568514 33.904157 -44.523431 -7.729226 0.636331 -9.274943 -2.788747 20.093409 -12.732513 23.159203 53.061583 13.378428 3.612230 -6.561582 12.937539 3.988111 -34.957034 -16.110048 3.232185 15.561711 -4.750947 1.150919 13.902508 1.348625 4.498238 -8.030752 1.842364 -0.038570 0.058939 -0.290661
183.552753 86.010554 -153.564899 121.449638 -23.630263 5.493459 -0.568277 9.064628 -0.036189 -0.085810 4.888904 0.128321 -0.105641 6.111161 0.159397 -0.085811 4.888908 0.128321 23.027600 21.462212 -0.415909 28.101484 -0.008371 -5.922629 -1.882744 0.509151 -4.417393 24.305465 13.464621 92.254459 24.753887 8.116793 47.532031 12.605606 -3.223579 2.009983 -4.886944 1.752644 1.636570 -24.578509 10.095177 -90.326547 -27.346082 33.880564 -44.338357 -7.837140 0.588428 -9.264481 -2.760419 19.009329 -12.348365 22.894707 53.173839 13.101303 3.114631 -7.319721 12.237168 3.234641 -32.795127 -14.641789 3.498845 16.014309 -4.422740 0.987603 13.542734 1.227030 4.483907 -7.897684 1.988693 -0.031862 -0.184034 -0.305777
183.989757 86.215129 -153.910961 121.385346 -23.498390 5.289969 -0.622568 8.984079 0.097010 -0.113414 4.883907 0.143671 -0.139973 6.104929 0.178234 -0.113415 4.883912 0.143671 22.533532 21.554293 -0.550105 27.437745 0.010270 -5.963668 -1.933465 0.568601 -4.539264 24.219352 13.483133 92.199067 24.709371 8.146568 47.478642 12.473064 -3.152117 2.212630 -4.900373 1.799029 1.551311 -24.616328 10.019689 -90.447249 -27.075783 33.831950 -44.111512 -7.957043 0.550307 -9.238446 -2.663911 17.940216 -11.973915 22.500445 53.179783 12.762752 2.617834 -7.970541 11.673446 2.637625 -30.878419 -13.351381 3.743202 16.436999 -4.137587 0.822881 13.206362 1.118505 4.479868 -7.778392 2.123818 -0.023353 -0.415339 -0.310986
184.410562 86.403874 -154.254413 121.338902 -23.375638 5.112017 -0.686815 8.914777 0.211324 -0.144659 4.879187 0.156254 -0.178898 6.099046 0.193560 -0.144660 4.879193 0.156254 22.014056 21.642359 -0.689459 26.745071 0.019842 -6.004035 -1.959171 0.620005 -4.651734 24.166916 13.504861 92.132468 24.668005 8.151580 47.429188 12.345015 -3.081409 2.421338 -4.902467 1.846479 1.475290 -24.665232 9.952361 -90.594498 -26.765127 33.752801 -43.850863 -8.085719 0.525504 -9.196507 -2.503917 16.890971 -11.625699 21.991175 53.083861 12.400497 2.110370 -8.504231 11.228205 2.170056 -29.234473 -12.209735 3.958637 16.842884 -3.895931 0.662858 12.893767 1.024087 4.476988 -7.677669 2.248368 -0.013697 -0.630852 -0.308153
184.817364 86.575882 -154.595062 121.309227 -23.265860 4.950684 -0.760020 8.860050 0.315923 -0.178735 4.874646 0.165899 -0.221405 6.093388 0.205173 -0.178736 4.874651 0.165899 21.473822 21.721280 -0.833258 26.030543 0.015113 -6.044048 -1.962203 0.666357 -4.754440 24.140277 13.526559 92.054769 24.632229 8.138676 47.388671 12.217183 -3.015241 2.635437 -4.892861 1.896844 1.407548 -24.719356 9.900214 -90.760016 -26.427138 33.648568 -43.565464 -8.224824 0.510681 -9.145466 -2.290319 15.860642 -11.304589 21.415813 52.884519 12.057835 1.569367 -8.920412 10.857609 1.806538 -27.864881 -11.173501 4.143773 17.234991 -3.689200 0.516649 12.610332 0.945187 4.473056 -7.604096 2.366365 -0.003994 -0.825589 -0.302900
185.211422 86.730466 -154.932877 121.289126 -23.165981 4.804944 -0.836157 8.816267 0.410938 -0.213868 4.870709 0.173315 -0.265263 6.088486 0.213984 -0.213869 4.870714 0.173316 20.917071 21.784052 -0.981555 25.300692 -0.011504 -6.084916 -1.948998 0.711017 -4.844787 24.127663 13.544971 91.963920 24.600997 8.116409 47.364429 12.088949 -2.951988 2.853607 -4.872888 1.949915 1.347327 -24.770224 9.866787 -90.935942 -26.083961 33.531228 -43.272722 -8.371590 0.490735 -9.085316 -2.041894 14.844919 -11.009159 20.807715 52.586713 11.737395 0.984991 -9.239340 10.517587 1.522796 -26.755559 -10.195769 4.292312 17.610870 -3.516948 0.404662 12.358386 0.880379 4.463656 -7.562784 2.484507 0.004533 -0.996893 -0.300157
185.595176 86.867209 -155.266030 121.267031 -23.071762 4.664361 -0.901447 8.776610 0.509861 -0.248449 4.868567 0.179032 -0.308453 6.085828 0.220677 -0.248449 4.868572 0.179033 20.348535 21.825207 -1.136332 24.563036 -0.065323 -6.130171 -1.925648 0.755770 -4.920462 24.119149 13.558722 91.857205 24.572374 8.090243 47.362175 11.964010 -2.890049 3.072224 -4.844823 2.004948 1.291712 -24.808680 9.852345 -91.112251 -25.755526 33.412678 -42.992743 -8.518423 0.455520 -9.013193 -1.773333 13.844698 -10.724092 20.155972 52.186518 11.400938 0.376676 -9.477352 10.177953 1.296736 -25.882730 -9.245045 4.409907 17.968183 -3.364835 0.346326 12.138786 0.829471 4.441474 -7.560813 2.603425 0.010645 -1.140309 -0.300825
185.970466 86.986401 -155.594433 121.236728 -22.982145 4.528612 -0.948414 8.737888 0.616064 -0.281251 4.869489 0.183052 -0.349439 6.086997 0.225267 -0.281251 4.869493 0.183052 19.772264 21.843007 -1.300359 23.824110 -0.147040 -6.183943 -1.896522 0.800755 -4.980316 24.107019 13.565354 91.733408 24.540931 8.062525 47.380375 11.850603 -2.831092 3.289398 -4.811035 2.058307 1.238953 -24.826878 9.856636 -91.280341 -25.451822 33.300848 -42.734551 -8.655763 0.410325 -8.936341 -1.501922 12.866169 -10.450869 19.431704 51.685208 11.012772 -0.228091 -9.657330 9.824036 1.121618 -25.214271 -8.312908 4.508293 18.308369 -3.227408 0.342285 11.951712 0.791073 4.403264 -7.599499 2.721084 0.015728 -1.255699 -0.302555
186.337188 87.089141 -155.921975 121.216865 -22.901555 4.414813 -0.995532 8.702463 0.704448 -0.311588 4.873737 0.185339 -0.387362 6.092323 0.227720 -0.311587 4.873740 0.185339 19.189929 21.839816 -1.473947 23.086273 -0.253023 -6.246699 -1.864833 0.848569 -5.024387 24.083822 13.561876 91.595303 24.504370 8.036800 47.412482 11.751088 -2.773888 3.506860 -4.773016 2.107718 1.189457 -24.823829 9.877905 -91.434101 -25.183131 33.196582 -42.503667 -8.771790 0.363219 -8.859121 -1.267290 11.913567 -10.219879 18.628058 51.110945 10.558718 -0.797198 -9.842486 9.479822 0.981568 -24.691127 -7.424123 4.568610 18.645609 -3.126312 0.377350 11.770066 0.756317 4.353220 -7.618540 2.841938 0.024515 -1.384503 -0.303155
186.693621 87.176283 -156.252854 121.184880 -22.824155 4.362572 -1.023558 8.664481 0.743084 -0.338816 4.880814 0.186512 -0.421410 6.101183 0.228818 -0.338816 4.880816 0.186512 18.601428 21.820231 -1.654949 22.348693 -0.377516 -6.315502 -1.835023 0.903464 -5.056186 24.048352 13.547932 91.449278 24.469286 8.013694 47.451184 11.663684 -2.719142 3.728358 -4.732835 2.155366 1.143112 -24.804644 9.911818 -91.569500 -24.959877 33.102546 -42.306586 -8.867635 0.312385 -8.778539 -1.071135 10.984472 -10.066776 17.756467 50.471906 10.035936 -1.346677 -9.993889 9.191957 0.878602 -24.281891 -6.603974 4.600910 18.976011 -3.096448 0.434665 11.615138 0.719010 4.303360 -7.698200 2.972011 0.034546 -1.465379 -0.304808
187.044931 87.249919 -156.587374 121.166756 -22.772241 4.350123 -1.056674 8.644098 0.742316 -0.361732 4.890430 0.187344 -0.450066 6.113214 0.229543 -0.361732 4.890431 0.187344 18.005419 21.786487 -1.840218 21.608665 -0.518055 -6.386079 -1.811367 0.964407 -5.081234 24.002807 13.526206 91.303945 24.439680 7.993449 47.492055 11.591370 -2.670833 3.949341 -4.693595 2.202865 1.100410 -24.774687 9.951137 -91.684226 -24.784056 33.020904 -42.146310 -8.947841 0.257256 -8.696762 -0.951611 10.099238 -9.983051 16.848646 49.772383 9.460746 -1.851613 -10.121128 8.990379 0.781957 -23.814041 -5.887784 4.576302 19.327761 -3.124321 0.501607 11.465423 0.676151 4.266627 -7.795717 3.110287 0.046758 -1.528442 -0.307446
